# xmcd
#
# Track frame offsets:
#	183
#	14130
#	32003
#	51043
#	69635
#	85368
#	103790
#	117403
#	136575
#	152020
#	167668
#	186490
#	199478
#	212988
#	228838
#	243523
#	253975
#
# Disc length: 3469 seconds
#
# Revision: 1
# Processed by: cddbd v1.4PL0 Copyright (c) Steve Scherf et al.
# Submitted via: audiograbber 1.80
#
DISCID=fb0d8b11
DTITLE=charlie mc coy and the united - charlie mc coy and the united
DYEAR=1900
DGENRE=
TTITLE0=kro hopping' (ch. mc coy)
TTITLE1=the funky duck (ch. mc coy)
TTITLE2=price-less shuffle (t. zinkhaan)
TTITLE3=let's get started (h. molenaar)
TTITLE4=chicano waltz (h. y. lozac'h/ j. j. milteau)
TTITLE5=fontaines (s. plak)
TTITLE6=crawdaddy stomp (d. thompson)
TTITLE7=for jim (s. plak)
TTITLE8=send in the krowns (ch, mc coy)
TTITLE9=lark in the morning (d. thompsen d'après trad.)
TTITLE10=get funktry (a. sommer)
TTITLE11=january 25 (h.y. lozac'h)
TTITLE12=cobboy's dream (ch. mc coy)
TTITLE13=mess in the mountain (j.y. lozac'h)
TTITLE14=st ann's reel (d. thompson)
TTITLE15=mont blacon blues (ch. mc coy)
TTITLE16=wreck of the old 43 (ch. mc coy)
EXTD=
EXTT0=
EXTT1=
EXTT2=
EXTT3=
EXTT4=
EXTT5=
EXTT6=
EXTT7=
EXTT8=
EXTT9=
EXTT10=
EXTT11=
EXTT12=
EXTT13=
EXTT14=
EXTT15=
EXTT16=
PLAYORDER=
